#N canvas 894 119 632 418 10;
#X obj 115 334 dac~;
#X obj 231 59 vsl 15 128 0 127 0 0 empty empty empty 0 -9 0 10 -262144
-1 -1 0 1;
#X obj 220 232 / 127;
#X obj 110 264 *~;
#X obj 101 90 osc~ 440;
#X connect 1 0 2 0;
#X connect 2 0 3 1;
#X connect 3 0 0 0;
#X connect 3 0 0 1;
#X connect 4 0 3 0;
